<svg xmlns="http://www.w3.org/2000/svg" xmlns:xlink="http://www.w3.org/1999/xlink" width="150" zoomAndPan="magnify" viewBox="0 0 112.5 37.5" height="50" preserveAspectRatio="xMidYMid meet" version="1.0"><defs><g/></defs><g fill="#000000" fill-opacity="1"><g transform="translate(4.949178, 25.848205)"><g><path d="M 13.78125 -14.84375 L 17.109375 -14.84375 L 13.53125 0 L 10.203125 0 L 11.71875 -6.3125 L 6.453125 -6.3125 L 4.921875 0 L 1.609375 0 L 5.15625 -14.84375 L 8.5 -14.84375 L 7.140625 -9.140625 L 12.40625 -9.140625 Z M 13.78125 -14.84375 "/></g></g></g><g fill="#000000" fill-opacity="1"><g transform="translate(20.238969, 25.848205)"><g><path d="M 2.140625 -4.40625 C 2.140625 -5.320312 2.300781 -6.207031 2.625 -7.0625 C 2.945312 -7.925781 3.398438 -8.6875 3.984375 -9.34375 C 4.566406 -10.007812 5.273438 -10.546875 6.109375 -10.953125 C 6.953125 -11.359375 7.878906 -11.5625 8.890625 -11.5625 C 9.390625 -11.5625 9.851562 -11.488281 10.28125 -11.34375 C 10.707031 -11.207031 11.082031 -11.003906 11.40625 -10.734375 C 11.726562 -10.460938 11.976562 -10.128906 12.15625 -9.734375 C 12.332031 -9.335938 12.421875 -8.890625 12.421875 -8.390625 C 12.421875 -7.597656 12.242188 -6.921875 11.890625 -6.359375 C 11.535156 -5.804688 11.039062 -5.351562 10.40625 -5 C 9.769531 -4.65625 9.015625 -4.398438 8.140625 -4.234375 C 7.265625 -4.078125 6.316406 -4 5.296875 -4 C 5.390625 -3.40625 5.601562 -2.984375 5.9375 -2.734375 C 6.28125 -2.484375 6.816406 -2.359375 7.546875 -2.359375 C 7.992188 -2.359375 8.453125 -2.394531 8.921875 -2.46875 C 9.398438 -2.550781 9.847656 -2.671875 10.265625 -2.828125 L 10.5 -0.328125 C 10.09375 -0.160156 9.578125 -0.015625 8.953125 0.109375 C 8.335938 0.234375 7.664062 0.296875 6.9375 0.296875 C 6.050781 0.296875 5.304688 0.171875 4.703125 -0.078125 C 4.097656 -0.328125 3.601562 -0.664062 3.21875 -1.09375 C 2.84375 -1.519531 2.566406 -2.019531 2.390625 -2.59375 C 2.222656 -3.164062 2.140625 -3.769531 2.140625 -4.40625 Z M 8.375 -9.046875 C 7.644531 -9.046875 7.003906 -8.78125 6.453125 -8.25 C 5.910156 -7.726562 5.550781 -7.039062 5.375 -6.1875 C 6.257812 -6.21875 6.972656 -6.289062 7.515625 -6.40625 C 8.054688 -6.53125 8.476562 -6.675781 8.78125 -6.84375 C 9.082031 -7.019531 9.28125 -7.207031 9.375 -7.40625 C 9.476562 -7.613281 9.53125 -7.816406 9.53125 -8.015625 C 9.53125 -8.703125 9.144531 -9.046875 8.375 -9.046875 Z M 8.375 -9.046875 "/></g></g></g><g fill="#000000" fill-opacity="1"><g transform="translate(31.588533, 25.848205)"><g><path d="M 10.109375 -8.53125 C 9.828125 -8.601562 9.546875 -8.671875 9.265625 -8.734375 C 8.984375 -8.796875 8.570312 -8.828125 8.03125 -8.828125 C 7.832031 -8.828125 7.609375 -8.804688 7.359375 -8.765625 C 7.117188 -8.734375 6.921875 -8.695312 6.765625 -8.65625 L 4.6875 0 L 1.5 0 L 4.0625 -10.671875 C 4.675781 -10.867188 5.363281 -11.054688 6.125 -11.234375 C 6.894531 -11.410156 7.757812 -11.5 8.71875 -11.5 C 9.070312 -11.5 9.46875 -11.46875 9.90625 -11.40625 C 10.34375 -11.34375 10.722656 -11.238281 11.046875 -11.09375 Z M 10.109375 -8.53125 "/></g></g></g><g fill="#000000" fill-opacity="1"><g transform="translate(40.711013, 25.848205)"><g><path d="M 4.5625 -14.078125 L 7.890625 -14.59375 L 7.0625 -11.265625 L 10.625 -11.265625 L 9.984375 -8.65625 L 6.453125 -8.65625 L 5.5 -4.71875 C 5.414062 -4.382812 5.363281 -4.070312 5.34375 -3.78125 C 5.320312 -3.5 5.359375 -3.253906 5.453125 -3.046875 C 5.546875 -2.835938 5.707031 -2.675781 5.9375 -2.5625 C 6.164062 -2.457031 6.476562 -2.40625 6.875 -2.40625 C 7.21875 -2.40625 7.550781 -2.4375 7.875 -2.5 C 8.195312 -2.5625 8.519531 -2.648438 8.84375 -2.765625 L 9.078125 -0.328125 C 8.648438 -0.160156 8.1875 -0.0234375 7.6875 0.078125 C 7.1875 0.191406 6.59375 0.25 5.90625 0.25 C 4.925781 0.25 4.164062 0.101562 3.625 -0.1875 C 3.082031 -0.476562 2.695312 -0.875 2.46875 -1.375 C 2.238281 -1.882812 2.132812 -2.46875 2.15625 -3.125 C 2.1875 -3.78125 2.289062 -4.472656 2.46875 -5.203125 Z M 4.5625 -14.078125 "/></g></g></g><g fill="#000000" fill-opacity="1"><g transform="translate(49.61935, 25.848205)"><g><path d="M 12.46875 -9.140625 C 12.132812 -8.859375 11.703125 -8.46875 11.171875 -7.96875 C 10.648438 -7.476562 10.082031 -6.9375 9.46875 -6.34375 C 8.851562 -5.757812 8.222656 -5.140625 7.578125 -4.484375 C 6.941406 -3.835938 6.34375 -3.210938 5.78125 -2.609375 L 11.015625 -2.609375 L 10.375 0 L 1.28125 0 L 1.734375 -1.859375 C 2.148438 -2.378906 2.625 -2.9375 3.15625 -3.53125 C 3.695312 -4.132812 4.253906 -4.742188 4.828125 -5.359375 C 5.410156 -5.972656 5.988281 -6.5625 6.5625 -7.125 C 7.144531 -7.6875 7.6875 -8.195312 8.1875 -8.65625 L 3.59375 -8.65625 L 4.234375 -11.265625 L 12.984375 -11.265625 Z M 12.46875 -9.140625 "/></g></g></g><g fill="#000000" fill-opacity="1"><g transform="translate(60.883257, 25.848205)"><g><path d="M 2.265625 -7.84375 L 8.484375 -7.84375 L 7.78125 -4.953125 L 1.5625 -4.953125 Z M 2.265625 -7.84375 "/></g></g></g><g fill="#000000" fill-opacity="1"><g transform="translate(68.228359, 25.848205)"><g><path d="M 14.3125 -5.390625 C 13.820312 -3.378906 13.03125 -1.925781 11.9375 -1.03125 C 10.84375 -0.144531 9.398438 0.296875 7.609375 0.296875 C 6.679688 0.296875 5.898438 0.1875 5.265625 -0.03125 C 4.628906 -0.25 4.109375 -0.554688 3.703125 -0.953125 C 3.304688 -1.347656 3.019531 -1.816406 2.84375 -2.359375 C 2.664062 -2.910156 2.578125 -3.507812 2.578125 -4.15625 C 2.578125 -4.894531 2.679688 -5.6875 2.890625 -6.53125 L 4.890625 -14.84375 L 8.21875 -14.84375 L 6.125 -6.0625 C 5.976562 -5.550781 5.90625 -5.03125 5.90625 -4.5 C 5.90625 -4.207031 5.9375 -3.945312 6 -3.71875 C 6.070312 -3.5 6.1875 -3.300781 6.34375 -3.125 C 6.507812 -2.957031 6.734375 -2.828125 7.015625 -2.734375 C 7.296875 -2.640625 7.640625 -2.59375 8.046875 -2.59375 C 8.910156 -2.59375 9.5625 -2.859375 10 -3.390625 C 10.445312 -3.929688 10.789062 -4.691406 11.03125 -5.671875 L 13.21875 -14.84375 L 16.5625 -14.84375 Z M 14.3125 -5.390625 "/></g></g></g><g fill="#000000" fill-opacity="1"><g transform="translate(82.854314, 25.848205)"><g><path d="M 15.828125 -14.84375 L 15.140625 -12.046875 L 10.796875 -12.046875 L 7.90625 0 L 4.5625 0 L 7.453125 -12.046875 L 3.109375 -12.046875 L 3.796875 -14.84375 Z M 15.828125 -14.84375 "/></g></g></g><g fill="#000000" fill-opacity="1"><g transform="translate(95.574392, 25.848205)"><g><path d="M 5.765625 -2.484375 C 6.085938 -2.484375 6.410156 -2.507812 6.734375 -2.5625 C 7.066406 -2.613281 7.363281 -2.703125 7.625 -2.828125 C 7.882812 -2.953125 8.09375 -3.132812 8.25 -3.375 C 8.414062 -3.613281 8.5 -3.914062 8.5 -4.28125 C 8.5 -4.570312 8.421875 -4.816406 8.265625 -5.015625 C 8.109375 -5.222656 7.910156 -5.410156 7.671875 -5.578125 C 7.429688 -5.753906 7.160156 -5.914062 6.859375 -6.0625 C 6.554688 -6.207031 6.253906 -6.363281 5.953125 -6.53125 C 5.566406 -6.757812 5.203125 -7 4.859375 -7.25 C 4.515625 -7.507812 4.222656 -7.800781 3.984375 -8.125 C 3.742188 -8.445312 3.550781 -8.804688 3.40625 -9.203125 C 3.257812 -9.597656 3.1875 -10.050781 3.1875 -10.5625 C 3.1875 -11.21875 3.3125 -11.828125 3.5625 -12.390625 C 3.8125 -12.953125 4.179688 -13.441406 4.671875 -13.859375 C 5.171875 -14.273438 5.789062 -14.597656 6.53125 -14.828125 C 7.269531 -15.066406 8.140625 -15.1875 9.140625 -15.1875 C 9.597656 -15.1875 10.039062 -15.144531 10.46875 -15.0625 C 10.90625 -14.988281 11.304688 -14.894531 11.671875 -14.78125 C 12.046875 -14.664062 12.382812 -14.53125 12.6875 -14.375 C 13 -14.226562 13.257812 -14.085938 13.46875 -13.953125 L 12.078125 -11.484375 C 11.722656 -11.753906 11.285156 -11.984375 10.765625 -12.171875 C 10.253906 -12.359375 9.703125 -12.453125 9.109375 -12.453125 C 8.773438 -12.453125 8.457031 -12.421875 8.15625 -12.359375 C 7.863281 -12.304688 7.601562 -12.210938 7.375 -12.078125 C 7.144531 -11.941406 6.960938 -11.765625 6.828125 -11.546875 C 6.691406 -11.328125 6.625 -11.0625 6.625 -10.75 C 6.625 -10.46875 6.675781 -10.226562 6.78125 -10.03125 C 6.882812 -9.84375 7.019531 -9.675781 7.1875 -9.53125 C 7.363281 -9.382812 7.566406 -9.253906 7.796875 -9.140625 C 8.023438 -9.023438 8.269531 -8.90625 8.53125 -8.78125 C 8.96875 -8.550781 9.394531 -8.304688 9.8125 -8.046875 C 10.226562 -7.796875 10.59375 -7.5 10.90625 -7.15625 C 11.21875 -6.820312 11.46875 -6.441406 11.65625 -6.015625 C 11.84375 -5.585938 11.9375 -5.082031 11.9375 -4.5 C 11.9375 -3.6875 11.785156 -2.976562 11.484375 -2.375 C 11.179688 -1.78125 10.757812 -1.28125 10.21875 -0.875 C 9.675781 -0.476562 9.03125 -0.1875 8.28125 0 C 7.53125 0.195312 6.695312 0.296875 5.78125 0.296875 C 5.1875 0.296875 4.628906 0.242188 4.109375 0.140625 C 3.585938 0.046875 3.113281 -0.0664062 2.6875 -0.203125 C 2.269531 -0.335938 1.90625 -0.484375 1.59375 -0.640625 C 1.289062 -0.796875 1.046875 -0.941406 0.859375 -1.078125 L 2.265625 -3.625 C 2.441406 -3.507812 2.648438 -3.382812 2.890625 -3.25 C 3.128906 -3.125 3.398438 -3.003906 3.703125 -2.890625 C 4.015625 -2.773438 4.34375 -2.675781 4.6875 -2.59375 C 5.03125 -2.519531 5.390625 -2.484375 5.765625 -2.484375 Z M 5.765625 -2.484375 "/></g></g></g><path stroke-linecap="butt" transform="matrix(1.334696, 0, 0, 1.327745, 4.732659, 28.740496)" fill="none" stroke-linejoin="miter" d="M 0.00128594 0.998618 L 77.602645 0.998618 " stroke="#0f4beb" stroke-width="2" stroke-opacity="1" stroke-miterlimit="4"/></svg>